<?xml version="1.0" encoding="UTF-8" standalone="no"?>
<!DOCTYPE svg PUBLIC "-//W3C//DTD SVG 1.0//EN"
"http://www.w3.org/TR/2001/REC-SVG-20010904/DTD/svg10.dtd">
<!-- Created with Inkscape (http://www.inkscape.org/) -->
<svg
   xmlns="http://www.w3.org/2000/svg"
   xmlns:xlink="http://www.w3.org/1999/xlink"
   version="1.0"
   x="0.00000000"
   y="0.00000000"
   width="60.000000"
   height="60.000000"
   id="svg1">
  <defs
     id="defs3" />
  <path
     d="M 3.6112949,9.3940792 L 3.6112949,8.5550900 C 3.1176409,8.1046519 2.7720602,7.6659316 2.5745517,7.2389278 C 2.5469628,7.0782857 2.5331688,6.9607321 2.5331699,6.8862667 C 2.5331688,6.6709375 2.5769920,6.4398586 2.6646396,6.1930294 L 2.5686923,5.9755001 L 2.5566074,5.7722530 C 2.5566063,5.1914468 2.7675436,4.9010418 3.1894199,4.9010372 C 3.2089494,4.9010418 3.2401994,4.8940838 3.2831699,4.8801632 C 3.3144181,4.6606856 3.3838150,4.4960129 3.4913608,4.3861446 C 3.5989026,4.2762866 3.7465465,4.2213550 3.9342929,4.2213497 C 4.0163216,4.2213550 4.1121467,4.2411303 4.2217685,4.2806759 C 4.2686407,4.1202808 4.3427984,3.9999807 4.4442416,3.9197750 C 4.5456790,3.8395804 4.6724489,3.7994804 4.8245517,3.7994747 C 4.9378295,3.7994804 5.0364012,3.8224906 5.1202670,3.8685055 C 5.2041256,3.9145315 5.2753536,3.9834402 5.3339511,4.0752316 L 5.3925449,3.8767452 L 5.4159824,1.7666378 C 5.4159785,1.3135210 5.4689569,0.97263995 5.5749179,0.74399376 C 5.6808708,0.51536502 5.8378530,0.40104629 6.0458652,0.40103722 C 6.2890245,0.40104629 6.4596786,0.50938358 6.5578281,0.72604942 C 6.6559674,0.94273276 6.7050397,1.3237749 6.7050449,1.8691769 L 6.7548496,4.2429562 L 6.9650546,4.4648800 L 7.1034824,6.1223507 C 6.8903422,6.8664939 6.6403425,7.5284806 6.3534824,8.1083126 L 6.3534824,9.3658810 C 5.9140248,9.5611934 5.4433222,9.6588495 4.9413730,9.6588497 C 4.4980106,9.6588495 4.0546517,9.5705928 3.6112949,9.3940792 L 3.6112949,9.3940792 z M 6.4754306,3.9704952 L 6.4237949,1.8252316 C 6.4237899,1.0632771 6.2915879,0.68229601 6.0271884,0.68228722 C 5.9114614,0.68229601 5.8236319,0.80088720 5.7636997,1.0380611 C 5.7037589,1.2752520 5.6737907,1.6310255 5.6737949,2.1053829 L 5.6737949,3.4405880 C 5.7074821,3.4015316 5.7543570,3.3545345 5.8144199,3.2995968 L 6.4754306,3.9704952 z M 3.8925449,9.1955929 C 4.2587530,9.3169309 4.6171511,9.3775998 4.9677402,9.3775997 C 5.3378535,9.3775998 5.7060172,9.3089964 6.0722324,9.1717892 L 6.0722324,8.1024532 C 6.4731063,7.1075825 6.7227398,6.4416897 6.8211337,6.1047726 L 6.6991855,4.5780392 L 5.8210117,3.7170773 C 5.6916129,3.8872489 5.6269157,4.0804860 5.6269199,4.2967892 C 5.6269157,4.6290694 5.7963492,4.9595134 6.1352206,5.2881222 C 5.9213490,5.6445713 5.8144156,6.0146881 5.8144199,6.3984737 L 5.8144199,6.4984493 L 5.5331699,6.4867306 L 5.5331699,6.3515987 C 5.5331658,5.9990631 5.6126335,5.6641025 5.7715732,5.3467159 C 5.5928582,5.1033121 5.4665155,4.8785809 5.3925449,4.6725216 L 5.3925449,5.2350216 C 5.4491815,5.3407386 5.4906854,5.4445593 5.5170566,5.5464840 C 5.5434197,5.6484165 5.5566033,5.7483310 5.5566074,5.8462276 C 5.5566033,6.2966703 5.2990352,6.6550684 4.7839023,6.9214230 L 4.5985996,6.5101681 C 4.5168094,6.7687157 4.2929327,7.0057760 3.9269687,7.2213497 L 3.7735263,6.8569698 C 3.5938367,7.0762105 3.3888809,7.2347797 3.1586581,7.3326778 L 2.8437167,6.5984249 C 2.8241842,6.7981346 2.8144186,6.9274069 2.8144199,6.9862423 C 2.8144186,7.0253072 2.8196676,7.0937886 2.8301669,7.1916866 C 3.0933489,7.6462783 3.4474746,8.0498423 3.8925449,8.4023800 L 3.8925449,9.1955929 z M 4.9073154,6.5160275 C 5.1526731,6.3671048 5.2753536,6.1438384 5.2753574,5.8462276 C 5.2753536,5.7600497 5.2616817,5.6728916 5.2343417,5.5847530 C 5.2069943,5.4966222 5.1659787,5.4075110 5.1112949,5.3174191 L 5.1112949,4.5611935 C 5.1112913,4.4010423 5.0886472,4.2809252 5.0433627,4.2008419 C 4.9980712,4.1207691 4.9300170,4.0807301 4.8392001,4.0807247 C 4.7132204,4.0807301 4.6177004,4.1393848 4.5526401,4.2566891 C 4.4875736,4.3740037 4.4550419,4.5478927 4.4550449,4.7783566 L 4.4316074,5.3998165 L 4.9073154,6.5160275 z M 4.0470859,6.7921505 C 4.2655890,6.6551904 4.3975469,6.4260647 4.4429599,6.1047726 L 4.1503574,5.4935665 L 4.1737949,4.5970821 C 4.0810188,4.5340988 3.9997201,4.5026047 3.9298984,4.5025997 C 3.8100230,4.5026047 3.7191418,4.5525314 3.6572543,4.6523800 C 3.5953626,4.7522382 3.5644178,4.9021404 3.5644199,5.1020870 L 3.5779697,5.6525021 L 4.0470859,6.7921505 z M 3.3011142,6.9214230 C 3.4175674,6.8352440 3.5299940,6.7079247 3.6383945,6.5394650 L 3.2831699,5.7521114 L 3.2831699,5.1822872 C 2.9862934,5.1822915 2.8378560,5.3644202 2.8378574,5.7286739 L 2.8437167,5.9579220 L 3.3011142,6.9214230 z "
     transform="scale(6.120405,5.971946)"
     style="font-size:12.000000;font-style:normal;font-variant:normal;font-weight:normal;font-stretch:normal;fill:#000000;fill-opacity:1.0000000;stroke:none;stroke-width:1.0000000pt;stroke-linecap:butt;stroke-linejoin:miter;stroke-opacity:1.0000000;font-family:wingdings;text-anchor:start;writing-mode:lr;"
     id="text923" />
</svg>
